HIERARCHY
ROOT Hips
{
 OFFSET 0.000000 0.000000 0.000000
 CHANNELS 6 Xposition Yposition Zposition Yrotation Xrotation Zrotation
 JOINT Chest
 {
  OFFSET 0.000000 9.581000 -0.001100
  CHANNELS 3 Yrotation Xrotation Zrotation
  JOINT Chest2
  {
   OFFSET 0.000000 9.561100 0.002200
   CHANNELS 3 Yrotation Xrotation Zrotation
   JOINT Chest3
   {
    OFFSET 0.000000 9.521100 0.000000
    CHANNELS 3 Yrotation Xrotation Zrotation
    JOINT Chest4
    {
     OFFSET 0.000000 9.511400 0.000000
     CHANNELS 3 Yrotation Xrotation Zrotation
     JOINT Neck
     {
      OFFSET 0.000000 14.375100 0.000000
      CHANNELS 3 Yrotation Xrotation Zrotation
      JOINT Head
      {
       OFFSET 0.000000 8.901200 0.004600
       CHANNELS 3 Yrotation Xrotation Zrotation
       End Site
       {
        OFFSET 0.000000 16.962200 0.002400
       }
      }
     }
     JOINT RightCollar
     {
      OFFSET -2.920100 9.518800 0.000000
      CHANNELS 3 Yrotation Xrotation Zrotation
      JOINT RightShoulder
      {
       OFFSET -13.664500 0.000000 0.000000
       CHANNELS 3 Yrotation Xrotation Zrotation
       JOINT RightElbow
       {
        OFFSET 0.000000 -29.999200 0.000000
        CHANNELS 3 Yrotation Xrotation Zrotation
        JOINT RightWrist
        {
         OFFSET 0.000000 -24.253600 0.000000
         CHANNELS 3 Yrotation Xrotation Zrotation
         End Site
         {
          OFFSET 0.000000 -17.918900 0.000000
         }
        }
       }
      }
     }
     JOINT LeftCollar
     {
      OFFSET 2.920100 9.518800 0.000000
      CHANNELS 3 Yrotation Xrotation Zrotation
      JOINT LeftShoulder
      {
       OFFSET 13.664500 0.000000 0.000000
       CHANNELS 3 Yrotation Xrotation Zrotation
       JOINT LeftElbow
       {
        OFFSET 0.000000 -29.999200 0.000000
        CHANNELS 3 Yrotation Xrotation Zrotation
        JOINT LeftWrist
        {
         OFFSET 0.000000 -24.253600 0.000000
         CHANNELS 3 Yrotation Xrotation Zrotation
         End Site
         {
          OFFSET 0.000000 -17.918900 0.000000
         }
        }
       }
      }
     }
    }
   }
  }
 }
 JOINT RightHip
 {
  OFFSET -7.797300 0.005300 0.000500
  CHANNELS 3 Yrotation Xrotation Zrotation
  JOINT RightKnee
  {
   OFFSET 0.000000 -40.663400 -0.000500
   CHANNELS 3 Yrotation Xrotation Zrotation
   JOINT RightAnkle
   {
    OFFSET 0.000000 -39.523700 -0.000900
    CHANNELS 3 Yrotation Xrotation Zrotation
    JOINT RightToe
    {
     OFFSET 0.000000 -6.418000 14.485300
     CHANNELS 3 Yrotation Xrotation Zrotation
     End Site
     {
      OFFSET 0.000000 -1.465200 6.326400
     }
    }
   }
  }
 }
 JOINT LeftHip
 {
  OFFSET 7.797300 0.005300 0.000500
  CHANNELS 3 Yrotation Xrotation Zrotation
  JOINT LeftKnee
  {
   OFFSET 0.000000 -40.663400 -0.000500
   CHANNELS 3 Yrotation Xrotation Zrotation
   JOINT LeftAnkle
   {
    OFFSET 0.000000 -39.523700 -0.000900
    CHANNELS 3 Yrotation Xrotation Zrotation
    JOINT LeftToe
    {
     OFFSET 0.000000 -6.418000 14.485300
     CHANNELS 3 Yrotation Xrotation Zrotation
     End Site
     {
      OFFSET 0.000000 -1.465200 6.326400
     }
    }
   }
  }
 }
}
MOTION
Frames: 5
Frame Time: 0.008333
0.000000 86.422400 0.000000 0.000000 -5.767877 0.000000 0.000000 11.653817 0.000000 0.000000 -5.885947 0.000000 0.000000 -0.000000 0.000000 0.000000 -0.000000 0.000000 0.000000 12.528835 0.000000 0.000000 0.711642 0.000000 0.000000 -0.000000 0.000000 0.000000 0.000000 -90.000000 0.000000 -2.309062 0.000000 0.000000 2.309062 0.000000 0.000000 -0.000000 0.000000 0.000000 -0.000000 90.000000 0.000000 -2.309062 0.000000 0.000000 2.309062 0.000000 0.000000 8.520406 0.000000 0.000000 1.905762 0.000000 -0.000000 -4.658285 0.000000 0.000000 -0.000000 0.000000 0.000000 8.520406 0.000000 0.000000 1.905762 0.000000 -0.000000 -4.658285 0.000000 0.000000 -0.000000 0.000000
-23.708086 126.423137 52.098990 -179.130878 -28.351968 -3.178584 -0.407081 21.277041 2.226007 -0.105142 2.828678 0.310506 -0.159312 4.612585 0.489419 -0.402547 18.129476 1.879831 -0.637405 16.003961 -2.328132 -0.140538 -8.914022 -2.295219 -6.592586 -4.539714 -0.406566 2.551332 -11.224344 -5.351252 122.739009 -53.508449 -105.496020 0.513997 1.596141 -41.116784 -8.176944 -2.808850 1.855457 3.534092 -14.346900 5.932848 -82.714319 -81.060487 71.529789 -20.412700 -2.427942 27.694149 -8.523957 -53.132016 3.666191 -14.247933 70.771406 -16.823674 17.965432 11.540509 5.284676 0.007732 -0.006003 0.003425 -5.697028 -53.055261 -5.546211 38.471573 66.168437 28.927875 4.971137 33.568331 7.512001 0.008971 0.017100 0.003976
-23.708939 126.423237 52.099821 -179.127986 -28.360341 -3.181888 -0.404210 21.285179 2.214119 -0.102225 2.832015 0.314187 -0.157870 4.617788 0.473464 -0.400006 18.129483 1.889672 -0.720467 16.064200 -2.290056 -0.236300 -8.850795 -2.236547 -6.672964 -4.472786 -0.405551 2.279168 -11.086037 -5.367429 124.647333 -52.629291 -107.776772 0.585742 1.633293 -41.651378 -8.119203 -2.753021 1.903984 3.693454 -14.142284 5.984081 -85.103039 -81.214983 73.904595 -20.348266 -2.519810 28.029700 -8.534228 -53.123079 3.679831 -14.273139 70.771453 -16.860678 17.929380 11.543322 5.281815 0.002157 -0.004815 0.000956 -5.720454 -53.066119 -5.551294 38.524880 66.167280 28.985248 4.988556 33.595701 7.527201 0.004182 0.016917 0.001854
-23.709237 126.423118 52.101584 -179.124208 -28.364802 -3.189653 -0.403701 21.289377 2.211356 -0.102304 2.832024 0.309633 -0.156982 4.622576 0.475118 -0.397734 18.131310 1.887473 -0.801052 16.117085 -2.255112 -0.327217 -8.798857 -2.180266 -6.744671 -4.409832 -0.400230 2.043036 -10.961757 -5.423139 126.408306 -51.778818 -109.919070 0.653942 1.668926 -42.198861 -8.065197 -2.697624 1.944355 3.846976 -13.955262 6.038338 -87.359821 -81.338203 76.145230 -20.271861 -2.611410 28.375607 -8.551069 -53.116258 3.698923 -14.282555 70.764194 -16.885554 17.920313 11.549078 5.291130 -0.001478 -0.005816 -0.000655 -5.756876 -53.084849 -5.545447 38.525918 66.159973 29.006625 5.018400 33.679153 7.533015 0.009614 0.013604 0.004261
-23.709973 126.423385 52.103088 -179.118807 -28.372749 -3.196062 -0.406011 21.297620 2.212478 -0.100971 2.833833 0.299479 -0.157806 4.625086 0.482034 -0.395714 18.129134 1.889366 -0.861482 16.154226 -2.232984 -0.431161 -8.751365 -2.116959 -6.811020 -4.350474 -0.396498 1.852225 -10.844992 -5.509866 128.012484 -50.943848 -111.919433 0.712844 1.684613 -42.765766 -8.027366 -2.655081 1.966145 3.995854 -13.767681 6.104107 -89.433892 -81.445318 78.210325 -20.192739 -2.705592 28.705297 -8.562782 -53.106521 3.711352 -14.317984 70.757137 -16.935680 17.930139 11.550176 5.302936 -0.003327 -0.005764 -0.001474 -5.802193 -53.107368 -5.538378 38.607641 66.158804 29.086760 5.041392 33.722987 7.545872 0.003162 0.007612 0.001401
